# Blender v2.78 (sub 0) OBJ File: ''
# www.blender.org
mtllib base_link.mtl
o Base_Link
v -0.199820 0.135796 0.061836
v -0.199820 0.135796 -0.061834
v -0.217536 0.079900 -0.019055
v -0.217536 0.029100 -0.032445
v -0.199820 0.005467 -0.050773
v -0.199820 0.005467 0.050774
v -0.092700 0.000000 -0.076495
v -0.078657 0.000000 0.090910
v -0.008310 0.166000 -0.092327
v -0.067003 0.166000 -0.064062
v 0.092700 0.000000 -0.076495
v 0.092607 0.166000 -0.004159
v 0.092700 0.000000 0.076495
v 0.091164 0.011072 -0.082972
v 0.047546 0.166000 0.079578
v 0.060991 0.166000 0.069810
v -0.100925 0.166334 0.047810
v 0.032572 0.166000 0.086789
v 0.016552 0.166000 0.091210
v -0.199820 0.016206 0.061836
v -0.170412 0.148033 -0.001142
v -0.209708 0.080553 -0.059463
v -0.103062 0.166334 0.043011
v 0.081631 0.166000 0.043928
v 0.088163 0.166000 0.028646
v 0.085240 0.166000 -0.036433
v 0.077365 0.166000 -0.051068
v 0.086882 0.011129 -0.088068
v 0.078657 0.000000 -0.090910
v 0.024662 0.166000 -0.089359
v 0.072476 0.166000 0.057798
v 0.090075 0.011087 0.084791
v 0.078657 0.000000 0.090910
v -0.047546 0.166000 0.079578
v -0.016552 0.166000 0.091210
v -0.080767 0.011211 0.090699
v -0.217536 0.040600 -0.008240
v -0.165971 0.148108 -0.038459
v -0.084059 0.000000 -0.089706
v 0.067003 0.166000 -0.064062
v 0.054488 0.166000 -0.074996
v 0.091861 0.166000 0.012443
v 0.090376 0.166000 -0.020628
v 0.008310 0.166000 -0.092327
v -0.000000 0.000000 -0.092970
v 0.040221 0.166000 -0.083520
v 0.085092 0.011153 0.089205
v -0.000000 0.000000 0.092970
v -0.000000 0.166000 0.092700
v -0.199820 0.016206 -0.061834
v -0.078657 0.011239 -0.090910
v -0.209708 0.028448 -0.059463
vn -0.9533 0.3021 0.0000
vn -0.8001 -0.5998 0.0000
vn -0.0510 -0.9987 -0.0000
vn -0.0464 -0.9989 0.0039
vn -0.2071 0.8788 -0.4300
vn 1.0000 0.0006 0.0000
vn 0.9892 0.0589 -0.1339
vn 0.0017 1.0000 0.0024
vn 0.0012 1.0000 0.0044
vn 0.0016 1.0000 0.0032
vn -0.2545 -0.6939 0.6737
vn -0.3842 0.9233 0.0000
vn -0.9687 0.1655 -0.1850
vn -0.9807 0.0499 -0.1892
vn -0.0018 1.0000 -0.0037
vn -0.2768 0.9530 0.1232
vn -0.2919 0.9552 0.0493
vn 0.0018 1.0000 0.0008
vn 0.0015 1.0000 -0.0007
vn 0.0014 1.0000 -0.0008
vn 0.8673 0.1733 -0.4667
vn 0.6758 -0.3313 -0.6584
vn 0.7375 -0.2618 -0.6225
vn 0.2244 0.0821 -0.9710
vn 0.0019 1.0000 0.0012
vn 0.0018 1.0000 0.0017
vn 0.6756 -0.3325 0.6581
vn 0.7084 0.1985 0.6773
vn 0.8198 0.1874 0.5411
vn 0.9088 0.1520 0.3885
vn -0.2225 0.8965 0.3832
vn -0.0107 0.9995 0.0285
vn -0.2226 0.7738 0.5931
vn -0.1686 0.0667 0.9834
vn -0.2366 -0.0262 0.9713
vn -0.2356 0.0000 0.9718
vn -0.9550 -0.2678 0.1272
vn -0.9661 -0.1852 0.1798
vn -1.0000 0.0000 0.0000
vn -0.9823 0.0497 0.1808
vn -0.9695 0.0000 0.2451
vn -0.2209 0.9577 -0.1846
vn -0.3195 0.9469 -0.0361
vn -0.1946 0.9785 -0.0686
vn -0.2454 0.9690 -0.0273
vn -0.2339 0.0001 -0.9723
vn -0.0604 -0.9974 -0.0395
vn 0.0013 1.0000 -0.0010
vn 0.0011 1.0000 -0.0013
vn 0.6450 0.1972 -0.7383
vn 0.7669 0.1943 -0.6116
vn 0.7522 0.1942 -0.6297
vn 0.0017 1.0000 0.0001
vn 0.0018 1.0000 0.0004
vn 0.9987 0.0224 0.0449
vn 0.9765 0.0819 0.1995
vn 0.9708 0.0923 0.2216
vn 0.0017 1.0000 -0.0002
vn 0.0016 1.0000 -0.0005
vn 0.9892 0.0590 -0.1340
vn 0.9432 0.1281 -0.3065
vn 0.1782 0.0671 -0.9817
vn 0.0262 0.0026 -0.9997
vn 0.0000 0.0039 -1.0000
vn 0.0000 1.0000 -0.0025
vn 0.0004 1.0000 -0.0021
vn 0.5048 0.1769 -0.8449
vn 0.3483 0.1322 -0.9280
vn 0.0009 1.0000 -0.0016
vn 0.0007 1.0000 -0.0019
vn 0.6388 -0.2577 0.7250
vn 0.1603 0.0582 0.9854
vn 0.2646 0.1047 0.9587
vn 0.4284 0.1592 0.8895
vn 0.5772 0.1893 0.7944
vn 0.6520 0.1933 0.7332
vn -0.0262 0.0016 0.9997
vn -0.0447 0.0104 0.9989
vn -0.0896 0.0339 0.9954
vn 0.0006 1.0000 0.0062
vn -0.0008 1.0000 0.0093
vn 0.0262 0.0016 0.9997
vn 0.0896 0.0317 0.9955
vn -0.2590 -0.6930 -0.6728
vn -0.0386 -0.0880 -0.9954
vn -0.0258 0.0026 -0.9997
vn -0.1672 0.0670 -0.9836
vn -0.2281 0.0054 -0.9736
vn -0.2340 0.0000 -0.9722
vn -0.2342 -0.0008 -0.9722
vn -0.9605 0.0000 -0.2783
vn -0.8566 -0.4582 -0.2371
vn -0.7259 -0.4935 -0.4791
vn 0.0000 -1.0000 -0.0000
usemtl None
s off
f 1//1 2//1 3//1
f 4//2 5//2 6//2
f 5//3 7//3 6//3
f 7//4 8//4 6//4
f 9//5 2//5 10//5
f 11//6 12//6 13//6
f 12//7 11//7 14//7
f 15//8 16//8 17//8
f 18//9 17//9 19//9
f 18//10 15//10 17//10
f 6//11 8//11 20//11
f 21//12 2//12 1//12
f 22//13 3//13 2//13
f 22//14 4//14 3//14
f 9//15 10//15 23//15
f 23//16 1//16 17//16
f 23//17 21//17 1//17
f 24//18 25//18 17//18
f 26//19 23//19 17//19
f 23//20 26//20 27//20
f 26//21 14//21 27//21
f 28//22 11//22 29//22
f 28//23 14//23 11//23
f 29//24 30//24 28//24
f 31//25 24//25 17//25
f 16//26 31//26 17//26
f 32//27 33//27 13//27
f 32//28 31//28 16//28
f 24//29 31//29 32//29
f 32//30 25//30 24//30
f 17//31 1//31 34//31
f 34//32 35//32 17//32
f 35//33 34//33 1//33
f 36//34 35//34 1//34
f 36//35 20//35 8//35
f 20//36 36//36 1//36
f 37//37 4//37 6//37
f 6//38 20//38 37//38
f 3//39 4//39 37//39
f 37//40 1//40 3//40
f 37//41 20//41 1//41
f 38//42 10//42 2//42
f 2//43 21//43 38//43
f 38//44 23//44 10//44
f 23//45 38//45 21//45
f 39//46 22//46 2//46
f 39//47 7//47 5//47
f 40//48 23//48 27//48
f 40//49 41//49 23//49
f 40//50 28//50 41//50
f 40//51 27//51 14//51
f 40//52 14//52 28//52
f 42//53 12//53 17//53
f 25//54 42//54 17//54
f 13//55 12//55 42//55
f 42//56 32//56 13//56
f 32//57 42//57 25//57
f 17//58 12//58 43//58
f 43//59 26//59 17//59
f 43//60 12//60 14//60
f 26//61 43//61 14//61
f 44//62 30//62 29//62
f 44//63 29//63 45//63
f 9//64 44//64 45//64
f 23//65 44//65 9//65
f 44//66 23//66 30//66
f 28//67 46//67 41//67
f 46//68 28//68 30//68
f 46//69 23//69 41//69
f 46//70 30//70 23//70
f 47//71 33//71 32//71
f 47//72 19//72 33//72
f 47//73 18//73 19//73
f 15//74 18//74 47//74
f 47//75 16//75 15//75
f 47//76 32//76 16//76
f 8//77 48//77 49//77
f 49//78 36//78 8//78
f 36//79 49//79 35//79
f 49//80 19//80 17//80
f 17//81 35//81 49//81
f 49//82 48//82 33//82
f 49//83 33//83 19//83
f 50//84 39//84 5//84
f 45//85 39//85 51//85
f 51//86 9//86 45//86
f 51//87 2//87 9//87
f 51//88 39//88 2//88
f 52//89 22//89 39//89
f 39//90 50//90 52//90
f 22//91 52//91 4//91
f 5//92 4//92 52//92
f 52//93 50//93 5//93
f 7//94 39//94 8//94
f 39//94 29//94 11//94
f 45//94 29//94 39//94
f 39//94 11//94 13//94
f 13//94 33//94 39//94
f 39//94 33//94 48//94
f 39//94 48//94 8//94
o Cube
v 1.000000 -1.000000 -1.000000
v 1.000000 -1.000000 1.000000
v -1.000000 -1.000000 1.000000
v -1.000000 -1.000000 -1.000000
v 1.000000 1.000000 -0.999999
v 0.999999 1.000000 1.000001
v -1.000000 1.000000 1.000000
v -1.000000 1.000000 -1.000000
vn 0.0000 -1.0000 0.0000
vn 0.0000 1.0000 0.0000
vn 1.0000 0.0000 0.0000
vn -0.0000 -0.0000 1.0000
vn -1.0000 -0.0000 -0.0000
vn 0.0000 0.0000 -1.0000
usemtl Material
s off
f 53//95 54//95 55//95 56//95
f 57//96 60//96 59//96 58//96
f 53//97 57//97 58//97 54//97
f 54//98 58//98 59//98 55//98
f 55//99 59//99 60//99 56//99
f 57//100 53//100 56//100 60//100
