# Blender v2.78 (sub 0) OBJ File: ''
# www.blender.org
mtllib link_5.mtl
o Link_5
v -0.062974 -0.036331 0.018760
v -0.054153 -0.038200 -0.022987
v -0.019277 -0.043870 0.033168
v 0.069441 0.000009 0.037633
v 0.069560 -0.026267 0.026269
v 0.070616 0.027325 0.024043
v -0.063126 -0.029853 0.030965
v -0.069504 -0.015743 0.013910
v 0.069793 0.037188 -0.000002
v 0.065219 0.034485 -0.015553
v 0.007283 0.043295 -0.034127
v 0.069525 0.026260 -0.026302
v 0.048026 0.003093 -0.037324
v -0.060402 -0.022558 -0.032118
v -0.060402 0.022559 -0.032118
v 0.064500 0.016166 0.034476
v 0.043188 -0.025047 -0.036386
v 0.069636 -0.001894 -0.037586
v -0.055625 -0.031106 0.032198
v 0.048026 -0.003093 0.037320
v -0.066173 0.016172 0.030283
v -0.070135 0.023310 0.004066
v 0.065219 0.034485 0.015549
v 0.047598 0.039590 -0.000002
v 0.043864 0.023218 -0.036399
v -0.019277 0.043870 -0.033172
v -0.043987 0.039370 -0.028932
v -0.061492 0.037029 0.018361
v -0.055625 0.031106 0.032198
v -0.067071 -0.027080 -0.024386
v -0.000017 0.043870 0.033168
v 0.048026 0.003093 0.037320
v 0.064500 -0.016166 0.034476
v 0.013123 -0.041856 0.033168
v 0.065219 -0.034485 0.015549
v 0.069715 -0.037200 -0.000002
v 0.070551 -0.026100 -0.025992
v -0.019277 -0.043870 -0.033172
v -0.000017 -0.043870 -0.033172
v 0.002409 -0.043781 0.033195
v -0.061522 -0.004950 0.032095
v 0.013123 0.041856 0.033168
v 0.006630 0.043364 0.033168
v 0.065895 0.015044 -0.034297
v 0.000499 0.043870 -0.033172
v -0.019277 0.043870 0.033168
v -0.067704 -0.004774 -0.027922
v 0.065219 -0.034485 -0.015553
v 0.013123 -0.041856 -0.033172
v 0.047598 -0.039590 -0.000002
v -0.066701 0.024871 -0.026890
v 0.006630 -0.043364 -0.033172
vn -0.1725 -0.9850 0.0077
vn 0.9985 -0.0175 0.0511
vn -0.2928 -0.8461 0.4454
vn -0.9534 -0.2713 0.1321
vn 0.2177 0.9488 -0.2290
vn 0.2862 0.8129 -0.5073
vn 0.6167 0.7247 -0.3074
vn 0.9993 0.0291 -0.0223
vn -0.0480 0.0000 -0.9988
vn 0.6184 0.3286 0.7139
vn -0.0190 -0.0300 -0.9994
vn -0.0418 -0.0261 -0.9988
vn -0.2256 -0.5831 0.7804
vn -0.0395 -0.0365 0.9986
vn -0.9876 0.0233 0.1556
vn -0.9499 -0.0583 0.3070
vn 0.5575 0.7746 0.2987
vn 0.1076 0.9940 -0.0191
vn 0.2499 0.5459 -0.7997
vn -0.0016 0.0456 -0.9990
vn -0.2241 0.3882 -0.8939
vn -0.0348 0.0495 -0.9982
vn -0.0422 0.0320 -0.9986
vn -0.0386 0.0379 -0.9985
vn -0.1822 0.9831 -0.0188
vn -0.9134 0.3362 0.2296
vn -0.7340 0.4536 0.5054
vn -0.6426 -0.7594 -0.1018
vn -0.4207 -0.5768 -0.7002
vn -0.9547 -0.2964 0.0271
vn 0.0001 0.1014 0.9948
vn -0.0146 0.0000 0.9999
vn 0.5755 -0.3224 0.7516
vn 0.2464 -0.5339 0.8089
vn 0.0828 -0.2152 0.9731
vn 0.6180 -0.7246 0.3052
vn 0.2865 -0.8129 0.5071
vn 0.2113 -0.9507 0.2271
vn 0.3118 -0.4008 -0.8615
vn 0.9996 0.0195 -0.0221
vn 0.9991 0.0194 -0.0384
vn 0.9996 -0.0189 0.0189
vn 0.9993 -0.0312 0.0189
vn -0.1605 -0.9870 0.0000
vn 0.0000 -1.0000 0.0000
vn -0.3144 -0.5691 -0.7598
vn -0.0419 -0.0315 -0.9986
vn 0.0000 -0.1683 -0.9857
vn 0.1749 -0.9712 0.1621
vn 0.0041 -1.0000 0.0012
vn 0.0283 -0.1435 0.9892
vn -0.0008 -0.1000 0.9950
vn 0.0001 -0.1010 0.9949
vn -0.1675 -0.0339 0.9853
vn -0.2249 0.0340 0.9738
vn -0.4184 -0.0142 0.9081
vn -0.0475 -0.0068 0.9988
vn -0.0480 0.0050 0.9988
vn -0.0476 0.0000 0.9989
vn 0.2860 0.8145 0.5048
vn 0.2681 0.5755 0.7726
vn 0.0830 0.2155 0.9730
vn 0.1076 0.9940 0.0198
vn 0.0916 0.9958 -0.0001
vn 0.0088 0.1150 0.9933
vn 0.0356 0.1532 0.9875
vn 0.2125 0.9503 0.2277
vn 0.2188 0.9425 0.2527
vn 0.6619 0.2811 -0.6949
vn 0.1748 0.2247 -0.9586
vn 0.2646 0.5015 -0.8237
vn 0.0000 0.8567 -0.5159
vn 0.0844 0.9964 -0.0002
vn 0.0760 0.9971 0.0006
vn -0.3020 0.8234 0.4805
vn -0.0395 0.0365 0.9986
vn 0.0000 0.1013 0.9949
vn -0.1600 0.9871 0.0000
vn 0.0000 1.0000 0.0000
vn -0.4982 0.0000 -0.8671
vn -0.7121 -0.1296 -0.6900
vn -0.9983 -0.0289 -0.0505
vn -0.9979 -0.0366 -0.0525
vn 0.5891 -0.7498 -0.3013
vn 0.2608 -0.6097 -0.7485
vn 0.2864 -0.8131 -0.5068
vn 0.1074 -0.9940 0.0207
vn -0.9934 0.0374 -0.1083
vn -0.6273 0.0483 -0.7773
vn -0.8145 0.5769 -0.0613
vn -0.4109 0.5404 -0.7342
vn -0.5413 0.8255 -0.1595
vn 0.0760 -0.9971 -0.0014
vn 0.0920 -0.9958 -0.0004
vn 0.1074 -0.9940 -0.0196
vn 0.2124 -0.9504 -0.2274
vn 0.2188 -0.9425 -0.2527
vn 0.0154 -0.2026 -0.9791
vn 0.0720 -0.3100 -0.9480
usemtl None
s off
f 1//1 2//1 3//1
f 4//2 5//2 6//2
f 7//3 1//3 3//3
f 7//4 8//4 1//4
f 9//5 10//5 11//5
f 11//6 10//6 12//6
f 9//7 12//7 10//7
f 12//8 9//8 6//8
f 13//9 14//9 15//9
f 16//10 4//10 6//10
f 17//11 13//11 18//11
f 17//12 14//12 13//12
f 19//13 7//13 3//13
f 3//14 20//14 19//14
f 8//15 21//15 22//15
f 7//16 21//16 8//16
f 23//17 6//17 9//17
f 24//18 9//18 11//18
f 11//19 12//19 25//19
f 18//20 13//20 25//20
f 26//21 15//21 27//21
f 11//22 25//22 26//22
f 26//23 13//23 15//23
f 26//24 25//24 13//24
f 28//25 26//25 27//25
f 28//26 22//26 21//26
f 28//27 21//27 29//27
f 30//28 2//28 1//28
f 30//29 14//29 2//29
f 8//30 30//30 1//30
f 31//31 32//31 4//31
f 32//32 20//32 4//32
f 4//33 33//33 5//33
f 33//34 34//34 5//34
f 33//35 4//35 34//35
f 35//36 36//36 5//36
f 35//37 5//37 34//37
f 35//38 34//38 36//38
f 37//39 17//39 18//39
f 37//40 12//40 6//40
f 18//41 12//41 37//41
f 5//42 37//42 6//42
f 37//43 5//43 36//43
f 38//44 3//44 2//44
f 38//45 39//45 3//45
f 38//46 2//46 14//46
f 14//47 17//47 38//47
f 17//48 39//48 38//48
f 36//49 34//49 40//49
f 40//50 3//50 39//50
f 40//51 34//51 4//51
f 40//52 20//52 3//52
f 4//53 20//53 40//53
f 41//54 7//54 19//54
f 29//55 21//55 41//55
f 41//56 21//56 7//56
f 41//57 19//57 20//57
f 41//58 32//58 29//58
f 20//59 32//59 41//59
f 42//60 6//60 23//60
f 42//61 16//61 6//61
f 4//62 16//62 42//62
f 9//63 24//63 43//63
f 43//64 24//64 11//64
f 43//65 31//65 4//65
f 4//66 42//66 43//66
f 43//67 23//67 9//67
f 43//68 42//68 23//68
f 44//69 12//69 18//69
f 25//70 44//70 18//70
f 44//71 25//71 12//71
f 11//72 26//72 45//72
f 45//73 43//73 11//73
f 43//74 45//74 31//74
f 46//75 28//75 29//75
f 46//76 29//76 32//76
f 46//77 32//77 31//77
f 26//78 28//78 46//78
f 45//79 46//79 31//79
f 46//79 45//79 26//79
f 47//80 15//80 14//80
f 14//81 30//81 47//81
f 47//82 8//82 22//82
f 47//83 30//83 8//83
f 48//84 37//84 36//84
f 17//85 37//85 49//85
f 49//86 37//86 48//86
f 40//87 50//87 36//87
f 51//88 47//88 22//88
f 47//89 51//89 15//89
f 22//90 28//90 51//90
f 51//91 27//91 15//91
f 51//92 28//92 27//92
f 52//93 40//93 39//93
f 52//94 50//94 40//94
f 50//95 52//95 36//95
f 52//96 48//96 36//96
f 52//97 49//97 48//97
f 52//98 39//98 17//98
f 49//99 52//99 17//99
o Cube
v 1.000000 -1.000000 -1.000000
v 1.000000 -1.000000 1.000000
v -1.000000 -1.000000 1.000000
v -1.000000 -1.000000 -1.000000
v 1.000000 1.000000 -0.999999
v 0.999999 1.000000 1.000001
v -1.000000 1.000000 1.000000
v -1.000000 1.000000 -1.000000
vn 0.0000 -1.0000 0.0000
vn 0.0000 1.0000 0.0000
vn 1.0000 0.0000 0.0000
vn -0.0000 -0.0000 1.0000
vn -1.0000 -0.0000 -0.0000
vn 0.0000 0.0000 -1.0000
usemtl Material
s off
f 53//100 54//100 55//100 56//100
f 57//101 60//101 59//101 58//101
f 53//102 57//102 58//102 54//102
f 54//103 58//103 59//103 55//103
f 55//104 59//104 60//104 56//104
f 57//105 53//105 56//105 60//105
