# Blender v2.78 (sub 0) OBJ File: ''
# www.blender.org
mtllib link_4.mtl
o Link_4
v 0.155222 0.044231 0.058905
v 0.152473 0.045551 0.000289
v 0.143681 0.034108 -0.001992
v 0.174568 0.064594 -0.034325
v 0.181257 0.063208 -0.019667
v 0.235468 -0.048765 -0.009722
v 0.251962 -0.045837 -0.058114
v 0.318397 -0.041059 -0.057066
v 0.341299 -0.022368 -0.057017
v 0.334670 -0.030916 0.029733
v 0.330133 0.001782 -0.065212
v 0.346739 0.004225 -0.057977
v 0.254544 -0.047061 0.035523
v 0.154462 -0.048736 -0.002220
v 0.157559 -0.045913 0.054609
v 0.148000 0.026631 0.044859
v 0.330877 0.033038 -0.058176
v 0.313382 0.038772 -0.058583
v 0.198384 0.062378 -0.030512
v 0.321409 0.038301 0.058538
v 0.145443 0.012632 -0.043017
v 0.152664 0.042012 -0.058556
v 0.152642 -0.042534 -0.058415
v 0.163917 0.032847 0.063894
v 0.251500 0.032908 0.063869
v 0.252914 0.044397 0.058356
v 0.193267 0.010522 0.067046
v 0.177140 -0.006142 0.067111
v 0.322613 0.025053 0.064507
v 0.164565 -0.033982 0.063740
v 0.315225 -0.027125 -0.064401
v 0.345899 -0.000308 0.058394
v 0.346006 -0.010420 0.031618
v 0.156015 -0.045878 -0.058102
v 0.144812 -0.034861 0.000500
v 0.336239 0.027753 0.057649
v 0.315274 0.040256 -0.040973
v 0.250449 0.043904 -0.058680
v 0.164123 -0.034554 -0.063973
v 0.319166 -0.039847 0.058102
v 0.152921 -0.042605 0.058998
v 0.339981 -0.021281 0.058392
v 0.144854 -0.022397 -0.030238
v 0.345268 0.015174 -0.001259
v 0.314951 0.040459 0.033577
v 0.251384 0.032761 -0.063990
v 0.252310 -0.045637 0.058119
v 0.144808 -0.017473 0.034666
v 0.328024 -0.007497 0.065139
v 0.172405 0.014824 -0.065685
v 0.310706 -0.029201 0.064242
v 0.221462 0.009719 -0.066180
vn -0.7968 0.6021 0.0509
vn -0.6094 0.7915 0.0464
vn -0.1807 0.9680 0.1739
vn 0.0723 -0.9967 -0.0357
vn 0.6321 -0.7744 -0.0280
vn 0.4111 -0.1167 -0.9041
vn 0.0918 -0.9958 -0.0012
vn 0.0030 -0.9993 0.0364
vn -0.0020 -0.9988 0.0497
vn -0.9497 0.2837 0.1328
vn 0.3673 0.1959 -0.9092
vn 0.0936 0.2165 -0.9718
vn 0.1313 0.9552 -0.2652
vn 0.1157 0.9875 0.1071
vn 0.0836 0.9949 0.0559
vn -0.9065 -0.0005 -0.4222
vn -0.9766 0.1706 -0.1312
vn -0.7885 0.6137 -0.0395
vn -0.6922 0.7203 -0.0456
vn -0.0000 0.4014 0.9159
vn 0.0358 0.4288 0.9027
vn 0.0043 0.4322 0.9018
vn 0.0871 0.9837 0.1572
vn -0.0003 0.9721 0.2347
vn -0.0599 0.0619 0.9963
vn 0.0002 0.1400 0.9901
vn 0.0375 0.4133 0.9098
vn 0.0052 0.1273 0.9918
vn -0.2493 -0.0046 0.9684
vn 0.0469 -0.4569 -0.8883
vn 0.3158 -0.3847 -0.8673
vn 0.2983 -0.1801 -0.9373
vn 0.9999 -0.0077 0.0069
vn 0.9792 -0.2012 -0.0249
vn -0.7004 -0.7115 -0.0559
vn 0.0004 -0.9982 -0.0603
vn -0.0051 -0.9987 -0.0512
vn -0.8237 -0.5659 -0.0358
vn 0.5800 0.8146 0.0103
vn 0.3433 0.4116 0.8442
vn 0.4166 0.1671 0.8936
vn 0.1762 0.9791 -0.1014
vn 0.4129 0.9107 -0.0076
vn 0.3118 0.9434 -0.1130
vn 0.0708 0.8581 -0.5085
vn -0.0151 0.7383 -0.6743
vn -0.4349 -0.0014 -0.9005
vn -0.2271 -0.3151 -0.9215
vn 0.0153 -0.3645 -0.9311
vn 0.0001 -0.4603 -0.8878
vn 0.5069 -0.8620 0.0057
vn 0.1076 -0.9941 0.0097
vn -0.4840 0.0138 0.8750
vn -0.3735 -0.0057 0.9276
vn -0.9011 0.0243 0.4328
vn -0.5338 -0.8426 0.0710
vn -0.8170 -0.5755 0.0371
vn 0.8566 -0.5157 0.0146
vn 0.8890 -0.4576 0.0145
vn 0.9570 -0.2701 0.1058
vn 0.6593 -0.7411 0.1270
vn -0.9991 0.0010 -0.0434
vn -0.9998 -0.0167 -0.0081
vn -0.9728 -0.0648 -0.2226
vn -0.9665 -0.2373 -0.0976
vn 0.8741 0.4807 -0.0701
vn 0.7923 0.6101 -0.0088
vn 0.9967 0.0805 0.0103
vn 0.9423 0.3264 0.0747
vn 0.1615 0.9859 0.0434
vn 0.3210 0.9471 -0.0012
vn 0.1858 0.9826 -0.0019
vn -0.0095 0.4295 -0.9030
vn 0.0653 0.2046 -0.9767
vn 0.0366 0.4324 -0.9009
vn 0.0006 -0.9980 0.0630
vn 0.0861 -0.9937 0.0711
vn -0.0194 -0.8082 0.5886
vn -0.0067 -0.4749 0.8800
vn -0.9498 -0.0036 0.3130
vn -0.9718 -0.2102 0.1069
vn -0.9938 0.0489 0.0994
vn -0.9998 -0.0161 0.0081
vn 0.3264 0.0726 0.9424
vn 0.3893 -0.1100 0.9145
vn 0.0130 -0.0087 0.9999
vn 0.0171 0.0223 0.9996
vn -0.3152 0.0200 -0.9488
vn -0.0318 0.2319 -0.9722
vn 0.2669 -0.3135 0.9113
vn 0.2523 -0.2400 0.9374
vn 0.0092 -0.3776 0.9259
vn 0.0413 -0.4743 0.8794
vn 0.0005 -0.1204 0.9927
vn 0.0126 -0.0513 0.9986
vn 0.0144 0.0760 -0.9970
vn -0.0002 0.0948 -0.9955
vn 0.0066 -0.0314 -0.9995
vn -0.0004 -0.0493 -0.9988
vn -0.0134 -0.0324 -0.9994
usemtl None
s off
f 1//1 2//1 3//1
f 2//2 1//2 4//2
f 1//3 5//3 4//3
f 6//4 7//4 8//4
f 8//5 9//5 10//5
f 11//6 12//6 9//6
f 8//7 13//7 6//7
f 13//8 14//8 6//8
f 14//9 13//9 15//9
f 3//10 16//10 1//10
f 11//11 17//11 12//11
f 11//12 18//12 17//12
f 4//13 19//13 18//13
f 5//14 20//14 19//14
f 5//15 19//15 4//15
f 21//16 22//16 23//16
f 21//17 3//17 22//17
f 2//18 22//18 3//18
f 22//19 2//19 4//19
f 1//20 24//20 25//20
f 25//21 20//21 26//21
f 25//22 26//22 1//22
f 5//23 26//23 20//23
f 26//24 5//24 1//24
f 27//25 24//25 28//25
f 24//26 27//26 25//26
f 25//27 29//27 20//27
f 27//28 29//28 25//28
f 24//29 30//29 28//29
f 7//30 31//30 8//30
f 8//31 31//31 9//31
f 9//32 31//32 11//32
f 32//33 33//33 12//33
f 33//34 9//34 12//34
f 14//35 23//35 34//35
f 34//36 7//36 6//36
f 14//37 34//37 6//37
f 14//38 35//38 23//38
f 20//39 36//39 17//39
f 29//40 36//40 20//40
f 32//41 36//41 29//41
f 19//42 37//42 18//42
f 17//43 37//43 20//43
f 17//44 18//44 37//44
f 18//45 38//45 4//45
f 38//46 22//46 4//46
f 22//47 39//47 23//47
f 34//48 23//48 39//48
f 31//49 7//49 39//49
f 34//50 39//50 7//50
f 40//51 8//51 10//51
f 8//52 40//52 13//52
f 1//53 41//53 24//53
f 24//54 41//54 30//54
f 16//55 41//55 1//55
f 14//56 15//56 41//56
f 35//57 14//57 41//57
f 9//58 42//58 10//58
f 33//59 42//59 9//59
f 33//60 32//60 42//60
f 42//61 40//61 10//61
f 21//62 43//62 3//62
f 3//63 43//63 35//63
f 23//64 43//64 21//64
f 35//65 43//65 23//65
f 17//66 44//66 12//66
f 36//67 44//67 17//67
f 32//68 12//68 44//68
f 36//69 32//69 44//69
f 19//70 20//70 45//70
f 37//71 45//71 20//71
f 19//72 45//72 37//72
f 38//73 46//73 22//73
f 11//74 46//74 18//74
f 46//75 38//75 18//75
f 13//76 47//76 15//76
f 40//77 47//77 13//77
f 47//78 41//78 15//78
f 41//79 47//79 30//79
f 48//80 41//80 16//80
f 41//81 48//81 35//81
f 16//82 3//82 48//82
f 35//83 48//83 3//83
f 29//84 49//84 32//84
f 42//85 32//85 49//85
f 49//86 27//86 28//86
f 27//87 49//87 29//87
f 22//88 50//88 39//88
f 46//89 50//89 22//89
f 42//90 51//90 40//90
f 49//91 51//91 42//91
f 47//92 51//92 30//92
f 47//93 40//93 51//93
f 30//94 51//94 28//94
f 51//95 49//95 28//95
f 46//96 11//96 52//96
f 50//97 46//97 52//97
f 31//98 52//98 11//98
f 39//99 52//99 31//99
f 50//100 52//100 39//100
o Cube
v 1.000000 -1.000000 -1.000000
v 1.000000 -1.000000 1.000000
v -1.000000 -1.000000 1.000000
v -1.000000 -1.000000 -1.000000
v 1.000000 1.000000 -0.999999
v 0.999999 1.000000 1.000001
v -1.000000 1.000000 1.000000
v -1.000000 1.000000 -1.000000
vn 0.0000 -1.0000 0.0000
vn 0.0000 1.0000 0.0000
vn 1.0000 0.0000 0.0000
vn -0.0000 -0.0000 1.0000
vn -1.0000 -0.0000 -0.0000
vn 0.0000 0.0000 -1.0000
usemtl Material
s off
f 53//101 54//101 55//101 56//101
f 57//102 60//102 59//102 58//102
f 53//103 57//103 58//103 54//103
f 54//104 58//104 59//104 55//104
f 55//105 59//105 60//105 56//105
f 57//106 53//106 56//106 60//106
